<?xml version="1.0" encoding="utf-8"?>
<!-- Generator: Adobe Illustrator 15.0.0, SVG Export Plug-In . SVG Version: 6.00 Build 0)  -->
<!DOCTYPE svg PUBLIC "-//W3C//DTD SVG 1.1//EN" "http://www.w3.org/Graphics/SVG/1.1/DTD/svg11.dtd">
<svg version="1.1" id="图层_1" focusable="false" xmlns="http://www.w3.org/2000/svg" xmlns:xlink="http://www.w3.org/1999/xlink"
	 x="0px" y="0px" width="23.441px" height="28.372px" viewBox="0 0 23.441 33.372" enable-background="new 0 0 23.441 33.372"
	 xml:space="preserve">
<g transform="matrix(1 0 0 -1 0 0)">
	<g>
		<path id="MJAMS-25A1" stroke="#000000" stroke-width="0.25" d="M16.321-21.525c0.111-0.036,0.186-0.11,0.223-0.224l0.001-4.599
			l-0.013-4.599c-0.074-0.094-0.14-0.153-0.195-0.182l-8.903-0.002C7.34-31.055,7.28-30.985,7.251-30.92l-0.002,9.185
			c0.028,0.046,0.089,0.11,0.183,0.194l4.444,0.016L16.321-21.525L16.321-21.525z M7.806-22.083l0.002-8.487l8.181,0.002
			l-0.002,8.485H7.806z"/>
	</g>
	<g transform="translate(0,-515)">
		<g>
			<path id="MJSZ4-E152" stroke="#000000" stroke-width="0.1" d="M22.153,496.195l-0.071-0.072H21.88c-0.095,0-0.159,0-0.19,0
				c-0.032,0-0.062,0.017-0.085,0.048s-0.045,0.06-0.06,0.084c-0.017,0.022-0.049,0.079-0.096,0.167
				c-0.048,0.088-0.123,0.183-0.227,0.286c-0.484,0.645-1.165,1.129-2.04,1.455c-0.875,0.325-1.733,0.493-2.577,0.5
				c-0.104,0-0.166,0.013-0.191,0.036c-0.023,0.023-0.036,0.111-0.036,0.264v0.416v0.383c0,0.159,0.012,0.254,0.035,0.286
				c0.025,0.031,0.084,0.048,0.179,0.048c0.692,0,1.417-0.143,2.173-0.43c1.471-0.651,2.568-1.613,3.293-2.886l0.095-0.167
				L22.153,496.195L22.153,496.195z"/>
		</g>
		<g transform="translate(390,0)">
			<g>
				<path id="MJSZ4-E151" stroke="#000000" stroke-width="0.1" d="M-372.393,499.378c0-0.35,0-0.553,0-0.607
					c0-0.057-0.02-0.085-0.059-0.085c-0.032-0.016-0.092-0.023-0.179-0.023c-0.685,0-1.401,0.143-2.149,0.429
					c-1.471,0.652-2.569,1.615-3.293,2.887l-0.096,0.167v0.417l0.072,0.071h0.203h0.048c0.08,0,0.131,0,0.155,0
					c0.023,0,0.047-0.016,0.071-0.047c0.023-0.032,0.044-0.06,0.06-0.084s0.052-0.083,0.107-0.179
					c0.055-0.095,0.127-0.191,0.215-0.287c0.517-0.644,1.2-1.129,2.051-1.455c0.852-0.326,1.708-0.489,2.565-0.488
					c0.104,0,0.167-0.012,0.19-0.036c0.025-0.023,0.037-0.111,0.037-0.263V499.378L-372.393,499.378z"/>
			</g>
			<g>
				<path id="MJSZ4-E150" stroke="#000000" stroke-width="0.1" d="M-377.666,502.634l0.071-0.071v-0.417l-0.095-0.167
					c-0.723-1.272-1.82-2.235-3.292-2.889c-0.589-0.231-1.205-0.37-1.849-0.417c-0.024,0-0.072,0-0.143,0
					c-0.072,0-0.125-0.005-0.156-0.014c-0.111,0-0.179,0.014-0.202,0.037s-0.035,0.098-0.035,0.227v0.453v0.416
					c0,0.145,0.012,0.229,0.035,0.251c0.023,0.023,0.088,0.041,0.191,0.048c1.058,0,2.044,0.218,2.958,0.657
					c0.915,0.438,1.582,1.034,2.003,1.789c0.031,0.049,0.06,0.076,0.084,0.084c0.023,0.009,0.099,0.012,0.227,0.012
					L-377.666,502.634L-377.666,502.634z"/>
			</g>
		</g>
		<g>
			<path id="MJSZ4-E153" stroke="#000000" stroke-width="0.1" d="M7.86,499.376v-0.417c0-0.144-0.012-0.228-0.035-0.251
				c-0.024-0.023-0.088-0.04-0.192-0.049c-1.129,0-2.087-0.202-2.875-0.608c-0.788-0.405-1.368-0.856-1.741-1.35
				c-0.063-0.07-0.126-0.154-0.191-0.25c-0.063-0.095-0.111-0.17-0.143-0.227c-0.032-0.056-0.06-0.084-0.083-0.084
				c-0.017-0.016-0.095-0.023-0.238-0.023H2.158l-0.071,0.07v0.418l0.095,0.167c0.723,1.272,1.82,2.235,3.292,2.888
				c0.756,0.287,1.48,0.43,2.172,0.43c0.103,0,0.163-0.012,0.179-0.036c0.017-0.023,0.027-0.107,0.035-0.25V499.376z"/>
		</g>
	</g>
	<g transform="scale(0.707)">
		<path id="MJAMS-25A1_1_" stroke="#000000" stroke-width="0.25" d="M19.596-5.073c0.079-0.026,0.131-0.078,0.156-0.157l0.001-3.252
			l-0.01-3.251c-0.052-0.066-0.099-0.108-0.138-0.128l-6.296-0.001c-0.064,0.052-0.108,0.102-0.127,0.147l-0.001,6.493
			c0.019,0.032,0.062,0.079,0.127,0.138l3.144,0.01L19.596-5.073z M13.576-5.468v-6l5.785,0.001l-0.001,6L13.576-5.468z"/>
	</g>
</g>
</svg>
