<svg xmlns="http://www.w3.org/2000/svg" xmlns:xlink="http://www.w3.org/1999/xlink" width="1.8ex" height="2.918ex" viewBox="0 -2595.8 1980.6 4701" role="img" focusable="false" style="vertical-align: -4.889ex;" aria-hidden="true">
	<g stroke="currentColor" fill="currentColor" stroke-width="0" transform="matrix(1 0 0 -1 0 0)">
		<g transform="translate(0,2550)">
			<use xlink:href="#MJSZ4-23A7" x="0" y="-900">
				<path stroke-width="1" id="MJSZ4-23A7" d="M712 899L718 893V876V865Q718 854 704 846Q627 793 577 710T510 525Q510 524 509 521Q505 493 504 349Q504 345 504 334Q504 277 504 240Q504 -2 503 -4Q502 -8 494 -9T444 -10Q392 -10 390 -9Q387 -8 386 -5Q384 5 384 230Q384 262 384 312T383 382Q383 481 392 535T434 656Q510 806 664 892L677 899H712Z"></path>
			</use>
			<g transform="translate(0,-1419.254658385093) scale(1,1.795031055900621)">
				<use xlink:href="#MJSZ4-23AA">
					<path stroke-width="1" id="MJSZ4-23AA" d="M384 150V266Q384 304 389 309Q391 310 455 310Q496 310 498 309Q502 308 503 298Q504 283 504 150Q504 32 504 12T499 -9H498Q496 -10 444 -10T390 -9Q386 -8 385 2Q384 17 384 150Z"></path>
				</use>
			</g>
			<use xlink:href="#MJSZ4-23A8" x="0" y="-2550">
				<path stroke-width="1" id="MJSZ4-23A8" d="M389 1159Q391 1160 455 1160Q496 1160 498 1159Q501 1158 502 1155Q504 1145 504 924Q504 691 503 682Q494 549 425 439T243 259L229 250L243 241Q349 175 421 66T503 -182Q504 -191 504 -424Q504 -600 504 -629T499 -659H498Q496 -660 444 -660T390 -659Q387 -658 386 -655Q384 -645 384 -425V-282Q384 -176 377 -116T342 10Q325 54 301 92T255 155T214 196T183 222T171 232Q170 233 170 250T171 268Q171 269 191 284T240 331T300 407T354 524T383 679Q384 691 384 925Q384 1152 385 1155L389 1159Z"></path>
			</use>
			<g transform="translate(0,-3719.254658385093) scale(1,1.795031055900621)">
				<use xlink:href="#MJSZ4-23AA">
					<path stroke-width="1" id="MJSZ4-23AA" d="M384 150V266Q384 304 389 309Q391 310 455 310Q496 310 498 309Q502 308 503 298Q504 283 504 150Q504 32 504 12T499 -9H498Q496 -10 444 -10T390 -9Q386 -8 385 2Q384 17 384 150Z"></path>
				</use>
			</g>
			<use xlink:href="#MJSZ4-23A9" x="0" y="-3700">
				<path stroke-width="1" id="MJSZ4-23A9" d="M718 -893L712 -899H677L666 -893Q542 -825 468 -714T385 -476Q384 -466 384 -282Q384 3 385 5L389 9Q392 10 444 10Q486 10 494 9T503 4Q504 2 504 -239V-310V-366Q504 -470 508 -513T530 -609Q546 -657 569 -698T617 -767T661 -812T699 -843T717 -856T718 -876V-893Z"></path>
			</use>
		</g>
		<g transform="translate(1056,0)">
			<g transform="translate(-22,0)">
				<use xlink:href="#MJAMS-25A1" x="0" y="1750">
					<path stroke-width="1" id="MJAMS-25A1" d="M71 0Q59 4 55 16V346L56 676Q64 686 70 689H709Q719 681 722 674V15Q719 10 709 1L390 0H71ZM682 40V649H95V40H682Z"></path>
				</use>
				<use xlink:href="#MJAMS-25A1" x="0" y="550">
					<path stroke-width="1" id="MJAMS-25A1" d="M71 0Q59 4 55 16V346L56 676Q64 686 70 689H709Q719 681 722 674V15Q719 10 709 1L390 0H71ZM682 40V649H95V40H682Z"></path>
				</use>
				<use xlink:href="#MJAMS-25A1" x="0" y="-650">
					<path stroke-width="1" id="MJAMS-25A1" d="M71 0Q59 4 55 16V346L56 676Q64 686 70 689H709Q719 681 722 674V15Q719 10 709 1L390 0H71ZM682 40V649H95V40H682Z"></path>
				</use>
				<use xlink:href="#MJAMS-25A1" x="0" y="-1850">
					<path stroke-width="1" id="MJAMS-25A1" d="M71 0Q59 4 55 16V346L56 676Q64 686 70 689H709Q719 681 722 674V15Q719 10 709 1L390 0H71ZM682 40V649H95V40H682Z"></path>
				</use>
			</g>
		</g>
	</g>
</svg>