<?xml version="1.0" encoding="utf-8"?>
<!-- Generator: Adobe Illustrator 15.0.0, SVG Export Plug-In . SVG Version: 6.00 Build 0)  -->
<!DOCTYPE svg PUBLIC "-//W3C//DTD SVG 1.1//EN" "http://www.w3.org/Graphics/SVG/1.1/DTD/svg11.dtd">
<svg version="1.1" id="图层_1" focusable="false" xmlns="http://www.w3.org/2000/svg" xmlns:xlink="http://www.w3.org/1999/xlink"
	 x="0px" y="0px" width="19.914px" height="18.564px" viewBox="0 0 19.914 18.564" enable-background="new 0 0 19.914 18.564"
	 xml:space="preserve">
<text transform="matrix(1 0 0 1 2.166 15.782)" font-family="'ArialMT'" font-size="16">↔</text>
<g>
	<g>
		<polyline fill="none" stroke="#000000" stroke-width="0.5" stroke-miterlimit="10" points="12.332,6.032 12.332,6.532 
			11.832,6.532 		"/>
		
			<line fill="none" stroke="#000000" stroke-width="0.5" stroke-miterlimit="10" stroke-dasharray="1.0863,1.0863" x1="10.746" y1="6.532" x2="9.116" y2="6.532"/>
		<polyline fill="none" stroke="#000000" stroke-width="0.5" stroke-miterlimit="10" points="8.573,6.532 8.073,6.532 8.073,6.032 
					"/>
		
			<line fill="none" stroke="#000000" stroke-width="0.5" stroke-miterlimit="10" stroke-dasharray="0.9414,0.9414" x1="8.073" y1="5.091" x2="8.073" y2="3.677"/>
		<polyline fill="none" stroke="#000000" stroke-width="0.5" stroke-miterlimit="10" points="8.073,3.208 8.073,2.708 8.573,2.708 
					"/>
		
			<line fill="none" stroke="#000000" stroke-width="0.5" stroke-miterlimit="10" stroke-dasharray="1.0863,1.0863" x1="9.66" y1="2.708" x2="11.289" y2="2.708"/>
		<polyline fill="none" stroke="#000000" stroke-width="0.5" stroke-miterlimit="10" points="11.832,2.708 12.332,2.708 
			12.332,3.208 		"/>
		
			<line fill="none" stroke="#000000" stroke-width="0.5" stroke-miterlimit="10" stroke-dasharray="0.9414,0.9414" x1="12.332" y1="4.149" x2="12.332" y2="5.561"/>
	</g>
</g>
<g>
	<g>
		<polyline fill="none" stroke="#000000" stroke-width="0.5" stroke-miterlimit="10" points="12.332,18.064 12.332,18.564 
			11.832,18.564 		"/>
		
			<line fill="none" stroke="#000000" stroke-width="0.5" stroke-miterlimit="10" stroke-dasharray="1.0863,1.0863" x1="10.746" y1="18.564" x2="9.116" y2="18.564"/>
		<polyline fill="none" stroke="#000000" stroke-width="0.5" stroke-miterlimit="10" points="8.573,18.564 8.073,18.564 
			8.073,18.064 		"/>
		
			<line fill="none" stroke="#000000" stroke-width="0.5" stroke-miterlimit="10" stroke-dasharray="0.9414,0.9414" x1="8.073" y1="17.123" x2="8.073" y2="15.71"/>
		<polyline fill="none" stroke="#000000" stroke-width="0.5" stroke-miterlimit="10" points="8.073,15.24 8.073,14.74 8.573,14.74 
					"/>
		
			<line fill="none" stroke="#000000" stroke-width="0.5" stroke-miterlimit="10" stroke-dasharray="1.0863,1.0863" x1="9.66" y1="14.74" x2="11.289" y2="14.74"/>
		<polyline fill="none" stroke="#000000" stroke-width="0.5" stroke-miterlimit="10" points="11.832,14.74 12.332,14.74 
			12.332,15.24 		"/>
		
			<line fill="none" stroke="#000000" stroke-width="0.5" stroke-miterlimit="10" stroke-dasharray="0.9414,0.9414" x1="12.332" y1="16.181" x2="12.332" y2="17.594"/>
	</g>
</g>
</svg>
